Simulation
nRows=42
nColumns=15
endheader
time  TH_x TH_y TH_z SC_y  SC_z  SC_x  AC_y  AC_z  AC_x  GH_y  GH_z  GH_yy  EL_x  PS_y
0.0  0.000000  0.000000  0.000000  -25.469700497170948  -3.681354367486475  -12.128416297218873  59.48832826260246  16.53220419871507  -4.413718082563892  -9.3278303841314  14.329070041978289  36.07701354938779  24.974443668306417  120.000000
0.027999999999999997  0.000000  0.000000  0.000000  -25.633363588190978  -3.5115381334018196  -11.505534673127517  59.48387089957288  16.260926953712115  -4.705625583664768  -9.800128697366876  14.643427531816588  36.34891788654872  24.588031257289845  120.000000
0.055999999999999994  0.000000  0.000000  0.000000  -25.747736581322915  -3.4036920811547366  -10.968686572999621  59.57807647786557  15.945536444237362  -4.9159969728990465  -10.227435010128627  14.887531179589397  36.65438922386268  24.278699292760226  120.000000
0.08399999999999999  0.000000  0.000000  0.000000  -25.85876527784353  -3.3213948491767957  -10.504920346165928  59.714733663052854  15.615799010508916  -5.066647578451776  -10.639976191320379  15.088201156683343  36.99151391427774  24.018479050863853  120.000000
0.11199999999999999  0.000000  0.000000  0.000000  -25.977588362718933  -3.24105255067074  -10.100213903833716  59.86322697062877  15.291662043150115  -5.167011755596086  -11.060292340960695  15.26787689792843  37.36270095303461  23.790263281741986  120.000000
0.13999999999999999  0.000000  0.000000  0.000000  -26.107253757984218  -3.152742972066619  -9.738157838883732  60.01579481413834  14.98542887580656  -5.229002609489703  -11.51029258511325  15.458133590721316  37.764561788592566  23.57301589014587  120.000000
0.16799999999999998  0.000000  0.000000  0.000000  -26.245895630458808  -3.0502540770029882  -9.405376983993195  60.1696093048575  14.702654865449192  -5.2596263772607355  -12.009538158384842  15.6901534946142  38.19159313135704  23.35382381686303  120.000000
0.19599999999999998  0.000000  0.000000  0.000000  -26.391217670431114  -2.9331459634074615  -9.094592082902158  60.32713129478389  14.444870771136207  -5.263622609823378  -12.571299871757414  15.992712522758005  38.63706958805083  23.125356594241577  120.000000
0.22399999999999998  0.000000  0.000000  0.000000  -26.54327497664573  -2.8055469507021793  -8.802389344725004  60.49128338155074  14.211414947361673  -5.243223883666361  -13.204257177242782  16.388282739098642  39.09111703316338  22.885213583324237  120.000000
0.252  0.000000  0.000000  0.000000  -26.704528997708284  -2.672495038192378  -8.527399338039748  60.66681403194977  14.001007889082222  -5.199490993960023  -13.91098262288087  16.893054170204746  39.54002031399346  22.6342411445704  120.000000
0.27999999999999997  0.000000  0.000000  0.000000  -26.87931261734394  -2.537525298939812  -8.268376746329263  60.859905380975874  13.814534266812421  -5.133271366889369  -14.688457354459539  17.516843453561734  39.96651107136673  22.375362788771106  120.000000
0.30799999999999994  0.000000  0.000000  0.000000  -27.072476833652196  -2.401567218894053  -8.022933075470553  61.07631368502974  13.655064045932244  -5.046090120600548  -15.528920422575554  18.263849386995446  40.349061741819625  22.112354950562224  120.000000
0.33599999999999997  0.000000  0.000000  0.000000  -27.28977257629298  -2.2633214680658074  -7.786707101070002  61.31968072456399  13.527906332141919  -4.940675126441034  -16.42090878230252  19.13216841524747  40.66361998335125  21.84896753443068  120.000000
0.364  0.000000  0.000000  0.000000  -27.53548467322561  -2.1194117550503373  -7.554329726373406  61.58875337597607  13.439950022449391  -4.820314941519141  -17.350604483555202  20.113724477372568  40.88467534926276  21.588331716727808  120.000000
0.39199999999999996  0.000000  0.000000  0.000000  -27.811911706375245  -1.9650917909878303  -7.320227167899416  61.87975629840561  13.400004177758973  -4.689578897777334  -18.30307510953076  21.195037956062468  40.98704429575663  21.332515358504278  120.000000
0.41999999999999993  0.000000  0.000000  0.000000  -28.119044933220337  -1.7952068591054227  -7.079449773486547  62.18590923082718  13.418141492399444  -4.553062011076949  -19.262955813294752  22.35955044310207  40.948253538382275  21.08188831885929  120.000000
0.44799999999999995  0.000000  0.000000  0.000000  -28.45440807317784  -1.6053662466747045  -6.828413761029678  62.49993807863291  13.505367881743801  -4.415399983853198  -20.21592244965442  23.589197341904317  40.7498909807316  20.83407490146381  120.000000
0.476  0.000000  0.000000  0.000000  -28.813713757346147  -1.3929802273071152  -6.565364170441523  62.814281730227805  13.67247502728956  -4.280287728471372  -21.14871231512573  24.866874746867897  40.3803216984635  20.5834112388225  120.000000
0.504  0.000000  0.000000  0.000000  -29.1914264409437  -1.1575979203076596  -6.290433781288245  63.122950973874495  13.929118000166365  -4.150192249543841  -22.049952262346565  26.177252403643383  39.835008606242425  20.320928149168612  120.000000
0.5319999999999999  0.000000  0.000000  0.000000  -29.58194354205786  -0.9007600794457488  -6.005316516717737  63.421483964599624  14.282906362326566  -4.025629178288204  -22.909720879491243  27.507639165202814  39.117961543939394  20.035688313512043  120.000000
0.5599999999999999  0.000000  0.000000  0.000000  -29.98003772409784  -0.6252930511496282  -5.713022177037497  63.70716186056655  14.738818517806873  -3.9052611903101404  -23.719328443785685  28.847888052254923  38.2415170992405  19.716702709633648  120.000000
0.588  0.000000  0.000000  0.000000  -30.381332867034235  -0.3344371759795802  -5.417628050179555  63.977413739194404  15.298625771824806  -3.785627621296279  -24.470433534683615  30.190698711516767  37.22797804371352  19.35503801055118  120.000000
0.6159999999999999  0.000000  0.000000  0.000000  -30.78197979377269  -0.031084725156535903  -5.124480899779209  64.22861609465114  15.960522483553241  -3.6617486863515634  -25.154055704922175  31.531944510533915  36.10978754638657  18.94540270452076  120.000000
0.6439999999999999  0.000000  0.000000  0.000000  -31.178571217214046  0.2826151514371499  -4.840026978014266  64.45490658890948  16.71918953145832  -3.527222780449569  -25.760378063324794  32.87080423713982  34.929650558494096  18.48677304551117  120.000000
0.6719999999999999  0.000000  0.000000  0.000000  -31.56856942888721  0.605359211909254  -4.571822889448221  64.64904033198327  17.566236431809635  -3.3746010337169055  -26.279337061297195  34.20943542622838  33.736736592247794  17.98175224013598  120.000000
0.7  0.000000  0.000000  0.000000  -31.95079158927169  0.9361132667467718  -4.327962193759295  64.8037375594691  18.491135325940004  -3.195799202117404  -26.702760394328305  35.551895467611594  32.58182928518133  17.43511912060364  120.000000
0.728  0.000000  0.000000  0.000000  -32.32594539828017  1.273689228758041  -4.116528505764696  64.91402739219997  19.482168791804433  -2.982652567715618  -27.026347924793413  36.90290148309741  31.510577137394897  16.852402803017803  120.000000
0.7559999999999999  0.000000  0.000000  0.000000  -32.69721670735966  1.6169524724081807  -3.944428549984871  64.97950314273798  20.52723465800354  -2.726623339262437  -27.251682626231812  38.266250816331066  30.557870904204616  16.23925367900353  120.000000
0.7839999999999999  0.000000  0.000000  0.000000  -33.069699603458524  1.9646870098390652  -3.816310739875218  65.00494877820856  21.614303124543763  -2.4199028306381876  -27.386772908543186  39.64361867718033  29.743868942641846  15.601316271078481  120.000000
0.8119999999999999  0.000000  0.000000  0.000000  -33.44921747086068  2.3154999909837763  -3.734089371878282  64.9991979296392  22.73172105425518  -2.0564396480007376  -27.445658569464882  41.03416723077544  29.07448861534185  14.944300793483928  120.000000
0.8399999999999999  0.000000  0.000000  0.000000  -33.841094557936984  2.6682581808074075  -3.69753415717375  64.97267555735212  23.868534219001123  -1.6323738001755124  -27.446183310663855  42.43488936003614  28.544598635499188  14.274403278583417  120.000000
0.8679999999999999  0.000000  0.000000  0.000000  -34.24887293253701  3.0224422344507293  -3.7047616408279813  64.93515414437373  25.014514997010508  -1.1461449350936976  -27.40773870338217  43.84135524550662  28.14250480279362  13.598895333675095  120.000000
0.8959999999999999  0.000000  0.000000  0.000000  -34.673120428236345  3.3782376848374924  -3.75176422938645  64.89378695192772  26.159478261412623  -0.5990064131441429  -27.34918131450016  45.248156658819426  27.85352963235132  12.926420712714178  120.000000
0.9239999999999999  0.000000  0.000000  0.000000  -35.111119908147636  3.7363824006131834  -3.8318324640490182  64.85250025291423  27.292439204510927  0.004678363133173337  -27.28762054029209  46.64933130922435  27.66280267404485  12.267062800829462  120.000000
0.952  0.000000  0.000000  0.000000  -35.55769281944835  4.0978900468149115  -3.935458446196303  64.81230698946216  28.401231851179165  0.6577559571076992  -27.237377553608418  48.0386026434744  27.55653711173793  11.631868367229233  120.000000
0.9799999999999999  0.000000  0.000000  0.000000  -36.00639296246535  4.463487210919138  -4.050699555894751  64.77289088607262  29.472701482910136  1.3506097140687887  -27.209603643840925  49.40951962681291  27.522013267511284  11.031723992644121  120.000000
1.008  0.000000  0.000000  0.000000  -36.451156878972846  4.8332759508542775  -4.163650852956515  64.73437405030982  30.49319445214977  2.0718806335725835  -27.211453881494112  50.75557812620781  27.54756929400533  10.475783536972356  120.000000
1.0359999999999998  0.000000  0.000000  0.000000  -36.88769401463674  5.206643091799889  -4.25945640239946  64.6991494866222  31.44954174053847  2.809186481530809  -27.245388266332565  52.070340939193095  27.622397039359  9.969876019431737  120.000000
1.0639999999999998  0.000000  0.000000  0.000000  -37.31413627751009  5.582092605533082  -4.323428701250716  64.67231620766844  32.33024977496541  3.5497344225732346  -27.308854281196645  53.347339152548656  27.736782783683413  9.515105087222855  120.000000
1.0919999999999999  0.000000  0.000000  0.000000  -37.731212087307206  5.957347647766787  -4.342591401965188  64.66142851535935  33.12645793492486  4.280954563507221  -27.395305605926325  54.57988075315741  27.882127724083876  9.107683726754711  120.000000
1.1199999999999999  0.000000  0.000000  0.000000  -38.14167261129574  6.329671647874902  -4.306936673771803  64.67486089944217  33.83244385861033  4.991441324044954  -27.495713844494865  55.76081027163632  28.05088003851486  8.740095393265028  120.000000
1.148  0.000000  0.000000  0.000000  -38.548783529848755  6.696153222760795  -4.210240212699025  64.72019977477821  34.44571730020244  5.671305808061283  -27.60059999430953  56.882558799755394  28.236173573085992  8.403253756350848  120.000000
